<svg width="1280" height="129" version="1.1" xmlns="http://www.w3.org/2000/svg"
  desc="Created with imagetracer.js version 1.2.6" fill="white">
  <path fill="#f8f9fa" stroke="#f8f9fa" stroke-width="1" opacity="0"
    d="M 0 0 L 267 0.5 L 201.5 4 L 200.5 5 L 181.5 6 L 180.5 7 L 172.5 7 L 171.5 8 L 135.5 12 L 62.5 26 L 24.5 36 L 0 44 L 0 0 Z " />
  <path fill="#f8f9fa" stroke="#f8f9fa" stroke-width="1" opacity="0"
    d="M 346.5 0 L 1279.5 0 L 1280 0.5 L 1280 45 L 1251.5 54 L 1203.5 66 L 1168.5 73 L 1144.5 76 L 1137.5 78 L 1131.5 78 L 1130.5 79 L 1116.5 80 L 1115.5 81 L 1079.5 84 L 1078.5 85 L 1067.5 85 L 1066.5 86 L 1037.5 87 L 1036.5 88 L 1014.5 88 L 1013.5 89 L 933.5 89 L 932.5 88 L 911.5 88 L 910.5 87 L 893.5 87 L 892.5 86 L 867.5 85 L 866.5 84 L 846.5 83 L 845.5 82 L 837.5 82 L 836.5 81 L 828.5 81 L 827.5 80 L 790.5 76 L 707.5 61 L 640.5 45 L 604.5 35 L 532.5 20 L 509.5 17 L 496.5 14 L 476.5 12 L 475.5 11 L 444.5 8 L 443.5 7 L 413.5 5 L 412.5 4 L 401.5 4 L 400.5 3 L 387.5 3 L 386.5 2 L 346.5 1 L 346.5 0 Z " />
  <path fill="#f8f9fa" stroke="#f8f9fa" stroke-width="1"
    opacity="0.7294117647058823" d="M 267.5 0 L 281 0.5 L 267.5 1 L 267.5 0 Z " />
  <path fill="#f8f9fa" stroke="#f8f9fa" stroke-width="1"
    opacity="0.7294117647058823" d="M 331.5 0 L 346 0.5 L 331.5 1 L 331.5 0 Z " />
  <path fill="#f8f9fa" stroke="#f8f9fa" stroke-width="1"
    opacity="0.7294117647058823" d="M 244.5 1 L 251 1.5 L 244.5 2 L 244.5 1 Z " />
  <path fill="#f8f9fa" stroke="#f8f9fa" stroke-width="1"
    opacity="0.7294117647058823" d="M 362.5 1 L 369 1.5 L 362.5 2 L 362.5 1 Z " />
  <path fill="#f8f9fa" stroke="#f8f9fa" stroke-width="1"
    opacity="0.7294117647058823" d="M 227.5 2 L 233 2.5 L 227.5 3 L 227.5 2 Z " />
  <path fill="#f8f9fa" stroke="#f8f9fa" stroke-width="1"
    opacity="0.7294117647058823" d="M 381.5 2 L 387 2.5 L 381.5 3 L 381.5 2 Z " />
  <path fill="#f8f9fa" stroke="#f8f9fa" stroke-width="1"
    opacity="0.7294117647058823" d="M 213.5 3 L 218 3.5 L 213.5 4 L 213.5 3 Z " />
  <path fill="#f8f9fa" stroke="#f8f9fa" stroke-width="1"
    opacity="0.7294117647058823" d="M 396.5 3 L 401 3.5 L 396.5 4 L 396.5 3 Z " />
  <path fill="#f8f9fa" stroke="#f8f9fa" stroke-width="1"
    opacity="0.7294117647058823" d="M 201.5 4 L 206 4.5 L 201.5 5 L 201.5 4 Z " />
  <path fill="#f8f9fa" stroke="#f8f9fa" stroke-width="1"
    opacity="0.7294117647058823" d="M 408.5 4 L 413 4.5 L 408.5 5 L 408.5 4 Z " />
  <path fill="#f8f9fa" stroke="#f8f9fa" stroke-width="1"
    opacity="0.7294117647058823" d="M 191.5 5 L 195 5.5 L 191.5 6 L 191.5 5 Z " />
  <path fill="#f8f9fa" stroke="#f8f9fa" stroke-width="1"
    opacity="0.7294117647058823" d="M 420.5 5 L 424 5.5 L 420.5 6 L 420.5 5 Z " />
  <path fill="#f8f9fa" stroke="#f8f9fa" stroke-width="1"
    opacity="0.7294117647058823" d="M 181.5 6 L 185 6.5 L 181.5 7 L 181.5 6 Z " />
  <path fill="#f8f9fa" stroke="#f8f9fa" stroke-width="1"
    opacity="0.7294117647058823" d="M 430.5 6 L 434 6.5 L 430.5 7 L 430.5 6 Z " />
  <path fill="#f8f9fa" stroke="#f8f9fa" stroke-width="1"
    opacity="0.7294117647058823" d="M 172.5 7 L 176 7.5 L 172.5 8 L 172.5 7 Z " />
  <path fill="#f8f9fa" stroke="#f8f9fa" stroke-width="1"
    opacity="0.7294117647058823" d="M 440.5 7 L 444 7.5 L 440.5 8 L 440.5 7 Z " />
  <path fill="#f8f9fa" stroke="#f8f9fa" stroke-width="1"
    opacity="0.7294117647058823" d="M 164.5 8 L 167 8.5 L 164.5 9 L 164.5 8 Z " />
  <path fill="#f8f9fa" stroke="#f8f9fa" stroke-width="1"
    opacity="0.7294117647058823" d="M 449.5 8 L 452 8.5 L 449.5 9 L 449.5 8 Z " />
  <path fill="#f8f9fa" stroke="#f8f9fa" stroke-width="1"
    opacity="0.7294117647058823" d="M 156.5 9 L 159 9.5 L 156.5 10 L 156.5 9 Z " />
  <path fill="#f8f9fa" stroke="#f8f9fa" stroke-width="1"
    opacity="0.7294117647058823" d="M 457.5 9 L 461 9.5 L 457.5 10 L 457.5 9 Z " />
  <path fill="#f8f9fa" stroke="#f8f9fa" stroke-width="1"
    opacity="0.7294117647058823" d="M 149.5 10 L 152 10.5 L 149.5 11 L 149.5 10 Z " />
  <path fill="#f8f9fa" stroke="#f8f9fa" stroke-width="1"
    opacity="0.7294117647058823" d="M 465.5 10 L 468 10.5 L 465.5 11 L 465.5 10 Z " />
  <path fill="#f8f9fa" stroke="#f8f9fa" stroke-width="1"
    opacity="0.7294117647058823" d="M 142.5 11 L 145 11.5 L 142.5 12 L 142.5 11 Z " />
  <path fill="#f8f9fa" stroke="#f8f9fa" stroke-width="1"
    opacity="0.7294117647058823" d="M 473.5 11 L 476 11.5 L 473.5 12 L 473.5 11 Z " />
  <path fill="#f8f9fa" stroke="#f8f9fa" stroke-width="1"
    opacity="0.7294117647058823" d="M 135.5 12 L 138 12.5 L 135.5 13 L 135.5 12 Z " />
  <path fill="#f8f9fa" stroke="#f8f9fa" stroke-width="1"
    opacity="0.7294117647058823" d="M 480.5 12 L 483 12.5 L 480.5 13 L 480.5 12 Z " />
  <path fill="#f8f9fa" stroke="#f8f9fa" stroke-width="1"
    opacity="0.7294117647058823" d="M 129.5 13 L 132 13.5 L 129.5 14 L 129.5 13 Z " />
  <path fill="#f8f9fa" stroke="#f8f9fa" stroke-width="1"
    opacity="0.7294117647058823" d="M 487.5 13 L 490 13.5 L 487.5 14 L 487.5 13 Z " />
  <path fill="#f8f9fa" stroke="#f8f9fa" stroke-width="1"
    opacity="0.7294117647058823" d="M 494.5 14 L 497 14.5 L 494.5 15 L 494.5 14 Z " />
  <path fill="#f8f9fa" stroke="#f8f9fa" stroke-width="1"
    opacity="0.7294117647058823" d="M 105.5 17 L 108 17.5 L 105.5 18 L 105.5 17 Z " />
  <path fill="#f8f9fa" stroke="#f8f9fa" stroke-width="1"
    opacity="0.7294117647058823" d="M 530.5 20 L 533 20.5 L 530.5 21 L 530.5 20 Z " />
  <path fill="#f8f9fa" stroke="#f8f9fa" stroke-width="1"
    opacity="0.7294117647058823" d="M 541.5 22 L 544 22.5 L 541.5 23 L 541.5 22 Z " />
  <path fill="#f8f9fa" stroke="#f8f9fa" stroke-width="1"
    opacity="0.7294117647058823" d="M 580.5 30 L 583 30.5 L 580.5 31 L 580.5 30 Z " />
  <path fill="#f8f9fa" stroke="#f8f9fa" stroke-width="1"
    opacity="0.7294117647058823" d="M 589.5 32 L 592 32.5 L 589.5 33 L 589.5 32 Z " />
  <path fill="#f8f9fa" stroke="#f8f9fa" stroke-width="1"
    opacity="0.7294117647058823" d="M 691.5 57 L 694 57.5 L 691.5 58 L 691.5 57 Z " />
  <path fill="#f8f9fa" stroke="#f8f9fa" stroke-width="1"
    opacity="0.7294117647058823" d="M 714.5 62 L 717 62.5 L 714.5 63 L 714.5 62 Z " />
  <path fill="#f8f9fa" stroke="#f8f9fa" stroke-width="1"
    opacity="0.7294117647058823" d="M 719.5 63 L 722 63.5 L 719.5 64 L 719.5 63 Z " />
  <path fill="#f8f9fa" stroke="#f8f9fa" stroke-width="1"
    opacity="0.7294117647058823" d="M 724.5 64 L 727 64.5 L 724.5 65 L 724.5 64 Z " />
  <path fill="#f8f9fa" stroke="#f8f9fa" stroke-width="1"
    opacity="0.7294117647058823" d="M 729.5 65 L 732 65.5 L 729.5 66 L 729.5 65 Z " />
  <path fill="#f8f9fa" stroke="#f8f9fa" stroke-width="1"
    opacity="0.7294117647058823" d="M 1194.5 67 L 1197 67.5 L 1194.5 68 L 1194.5 67 Z " />
  <path fill="#f8f9fa" stroke="#f8f9fa" stroke-width="1"
    opacity="0.7294117647058823" d="M 745.5 68 L 748 68.5 L 745.5 69 L 745.5 68 Z " />
  <path fill="#f8f9fa" stroke="#f8f9fa" stroke-width="1"
    opacity="0.7294117647058823" d="M 1189.5 68 L 1192 68.5 L 1189.5 69 L 1189.5 68 Z " />
  <path fill="#f8f9fa" stroke="#f8f9fa" stroke-width="1"
    opacity="0.7294117647058823" d="M 1184.5 69 L 1187 69.5 L 1184.5 70 L 1184.5 69 Z " />
  <path fill="#f8f9fa" stroke="#f8f9fa" stroke-width="1"
    opacity="0.7294117647058823" d="M 1179.5 70 L 1182 70.5 L 1179.5 71 L 1179.5 70 Z " />
  <path fill="#f8f9fa" stroke="#f8f9fa" stroke-width="1"
    opacity="0.7294117647058823" d="M 762.5 71 L 765 71.5 L 762.5 72 L 762.5 71 Z " />
  <path fill="#f8f9fa" stroke="#f8f9fa" stroke-width="1"
    opacity="0.7294117647058823" d="M 1174.5 71 L 1177 71.5 L 1174.5 72 L 1174.5 71 Z " />
  <path fill="#f8f9fa" stroke="#f8f9fa" stroke-width="1"
    opacity="0.7294117647058823" d="M 768.5 72 L 771 72.5 L 768.5 73 L 768.5 72 Z " />
  <path fill="#f8f9fa" stroke="#f8f9fa" stroke-width="1"
    opacity="0.7294117647058823" d="M 774.5 73 L 777 73.5 L 774.5 74 L 774.5 73 Z " />
  <path fill="#f8f9fa" stroke="#f8f9fa" stroke-width="1"
    opacity="0.7294117647058823" d="M 781.5 74 L 784 74.5 L 781.5 75 L 781.5 74 Z " />
  <path fill="#f8f9fa" stroke="#f8f9fa" stroke-width="1"
    opacity="0.7294117647058823" d="M 1157.5 74 L 1160 74.5 L 1157.5 75 L 1157.5 74 Z " />
  <path fill="#f8f9fa" stroke="#f8f9fa" stroke-width="1"
    opacity="0.7294117647058823" d="M 787.5 75 L 790 75.5 L 787.5 76 L 787.5 75 Z " />
  <path fill="#f8f9fa" stroke="#f8f9fa" stroke-width="1"
    opacity="0.7294117647058823" d="M 1151.5 75 L 1154 75.5 L 1151.5 76 L 1151.5 75 Z " />
  <path fill="#f8f9fa" stroke="#f8f9fa" stroke-width="1"
    opacity="0.7294117647058823" d="M 794.5 76 L 797 76.5 L 794.5 77 L 794.5 76 Z " />
  <path fill="#f8f9fa" stroke="#f8f9fa" stroke-width="1"
    opacity="0.7294117647058823" d="M 1144.5 76 L 1147 76.5 L 1144.5 77 L 1144.5 76 Z " />
  <path fill="#f8f9fa" stroke="#f8f9fa" stroke-width="1"
    opacity="0.7294117647058823" d="M 801.5 77 L 805 77.5 L 801.5 78 L 801.5 77 Z " />
  <path fill="#f8f9fa" stroke="#f8f9fa" stroke-width="1"
    opacity="0.7294117647058823" d="M 1138.5 77 L 1141 77.5 L 1138.5 78 L 1138.5 77 Z " />
  <path fill="#f8f9fa" stroke="#f8f9fa" stroke-width="1"
    opacity="0.7294117647058823" d="M 809.5 78 L 812 78.5 L 809.5 79 L 809.5 78 Z " />
  <path fill="#f8f9fa" stroke="#f8f9fa" stroke-width="1"
    opacity="0.7294117647058823" d="M 1131.5 78 L 1134 78.5 L 1131.5 79 L 1131.5 78 Z " />
  <path fill="#f8f9fa" stroke="#f8f9fa" stroke-width="1"
    opacity="0.7294117647058823" d="M 816.5 79 L 820 79.5 L 816.5 80 L 816.5 79 Z " />
  <path fill="#f8f9fa" stroke="#f8f9fa" stroke-width="1"
    opacity="0.7294117647058823" d="M 1123.5 79 L 1127 79.5 L 1123.5 80 L 1123.5 79 Z " />
  <path fill="#f8f9fa" stroke="#f8f9fa" stroke-width="1"
    opacity="0.7294117647058823" d="M 825.5 80 L 828 80.5 L 825.5 81 L 825.5 80 Z " />
  <path fill="#f8f9fa" stroke="#f8f9fa" stroke-width="1"
    opacity="0.7294117647058823" d="M 1116.5 80 L 1119 80.5 L 1116.5 81 L 1116.5 80 Z " />
  <path fill="#f8f9fa" stroke="#f8f9fa" stroke-width="1"
    opacity="0.7294117647058823" d="M 833.5 81 L 837 81.5 L 833.5 82 L 833.5 81 Z " />
  <path fill="#f8f9fa" stroke="#f8f9fa" stroke-width="1"
    opacity="0.7294117647058823" d="M 1107.5 81 L 1111 81.5 L 1107.5 82 L 1107.5 81 Z " />
  <path fill="#f8f9fa" stroke="#f8f9fa" stroke-width="1"
    opacity="0.7294117647058823" d="M 842.5 82 L 846 82.5 L 842.5 83 L 842.5 82 Z " />
  <path fill="#f8f9fa" stroke="#f8f9fa" stroke-width="1"
    opacity="0.7294117647058823" d="M 1099.5 82 L 1102 82.5 L 1099.5 83 L 1099.5 82 Z " />
  <path fill="#f8f9fa" stroke="#f8f9fa" stroke-width="1"
    opacity="0.7294117647058823" d="M 852.5 83 L 856 83.5 L 852.5 84 L 852.5 83 Z " />
  <path fill="#f8f9fa" stroke="#f8f9fa" stroke-width="1"
    opacity="0.7294117647058823" d="M 1089.5 83 L 1093 83.5 L 1089.5 84 L 1089.5 83 Z " />
  <path fill="#f8f9fa" stroke="#f8f9fa" stroke-width="1"
    opacity="0.7294117647058823" d="M 862.5 84 L 867 84.5 L 862.5 85 L 862.5 84 Z " />
  <path fill="#f8f9fa" stroke="#f8f9fa" stroke-width="1"
    opacity="0.7294117647058823" d="M 1079.5 84 L 1083 84.5 L 1079.5 85 L 1079.5 84 Z " />
  <path fill="#f8f9fa" stroke="#f8f9fa" stroke-width="1"
    opacity="0.7294117647058823" d="M 874.5 85 L 879 85.5 L 874.5 86 L 874.5 85 Z " />
  <path fill="#f8f9fa" stroke="#f8f9fa" stroke-width="1"
    opacity="0.7294117647058823" d="M 1067.5 85 L 1072 85.5 L 1067.5 86 L 1067.5 85 Z " />
  <path fill="#f8f9fa" stroke="#f8f9fa" stroke-width="1"
    opacity="0.7294117647058823" d="M 887.5 86 L 893 86.5 L 887.5 87 L 887.5 86 Z " />
  <path fill="#f8f9fa" stroke="#f8f9fa" stroke-width="1"
    opacity="0.7294117647058823" d="M 1053.5 86 L 1059 86.5 L 1053.5 87 L 1053.5 86 Z " />
  <path fill="#f8f9fa" stroke="#f8f9fa" stroke-width="1"
    opacity="0.7294117647058823" d="M 903.5 87 L 911 87.5 L 903.5 88 L 903.5 87 Z " />
  <path fill="#f8f9fa" stroke="#f8f9fa" stroke-width="1"
    opacity="0.7294117647058823" d="M 1037.5 87 L 1044 87.5 L 1037.5 88 L 1037.5 87 Z " />
  <path fill="#f8f9fa" stroke="#f8f9fa" stroke-width="1"
    opacity="0.7294117647058823" d="M 923.5 88 L 933 88.5 L 923.5 89 L 923.5 88 Z " />
  <path fill="#f8f9fa" stroke="#f8f9fa" stroke-width="1"
    opacity="0.7294117647058823" d="M 1014.5 88 L 1024 88.5 L 1014.5 89 L 1014.5 88 Z " />
  <path fill="#f8f9fa" stroke="#f8f9fa" stroke-width="1"
    opacity="0.7294117647058823" d="M 969.5 89 L 979 89.5 L 969.5 90 L 969.5 89 Z " />
  <path fill="#f8f9fa" stroke="#f8f9fa" stroke-width="1" opacity="1"
    d="M 281.5 0 L 330.5 0 L 331.5 1 L 380.5 2 L 381.5 3 L 419.5 5 L 420.5 6 L 429.5 6 L 430.5 7 L 439.5 7 L 440.5 8 L 472.5 11 L 473.5 12 L 479.5 12 L 480.5 13 L 486.5 13 L 487.5 14 L 493.5 14 L 494.5 15 L 524.5 19 L 530.5 21 L 535.5 21 L 566.5 27 L 571.5 29 L 602.5 35 L 691.5 58 L 774.5 74 L 780.5 74 L 781.5 75 L 808.5 78 L 816.5 80 L 824.5 80 L 825.5 81 L 851.5 83 L 852.5 84 L 861.5 84 L 862.5 85 L 873.5 85 L 874.5 86 L 902.5 87 L 903.5 88 L 922.5 88 L 923.5 89 L 968.5 89 L 969.5 90 L 978.5 90 L 979.5 89 L 1023.5 89 L 1024.5 88 L 1058.5 87 L 1059.5 86 L 1082.5 85 L 1083.5 84 L 1092.5 84 L 1093.5 83 L 1101.5 83 L 1102.5 82 L 1110.5 82 L 1111.5 81 L 1140.5 78 L 1214.5 64 L 1256.5 53 L 1280 45 L 1280 128.5 L 1279.5 129 L 0 129 L 0 45.5 L 1.5 44 L 64.5 26 L 125.5 14 L 131.5 14 L 138.5 12 L 166.5 9 L 167.5 8 L 194.5 6 L 195.5 5 L 205.5 5 L 206.5 4 L 232.5 3 L 233.5 2 L 250.5 2 L 251.5 1 L 280.5 1 L 281.5 0 Z " />
</svg>
